<mxfile host="app.diagrams.net" modified="2020-07-22T05:19:36.896Z" agent="5.0 (Windows NT 10.0; Win64; x64) AppleWebKit/537.36 (KHTML, like Gecko) Chrome/77.0.3865.90 Safari/537.36" etag="h5R4_6-2vv-x8MzAZTk0" version="13.4.8" type="github">
  <diagram id="KDJejZ-FLxKOCwTSTYCW" name="Page-1">
    <mxGraphModel dx="868" dy="450" grid="1" gridSize="10" guides="1" tooltips="1" connect="1" arrows="1" fold="1" page="1" pageScale="1" pageWidth="827" pageHeight="1169" math="0" shadow="0">
      <root>
        <mxCell id="0" />
        <mxCell id="1" parent="0" />
        <mxCell id="vHHzUcV1OGdBYVu1SESo-1" value="Employee" style="swimlane;fontStyle=1;align=center;verticalAlign=top;childLayout=stackLayout;horizontal=1;startSize=26;horizontalStack=0;resizeParent=1;resizeParentMax=0;resizeLast=0;collapsible=1;marginBottom=0;" vertex="1" parent="1">
          <mxGeometry x="240" y="160" width="290" height="244" as="geometry">
            <mxRectangle x="240" y="160" width="90" height="26" as="alternateBounds" />
          </mxGeometry>
        </mxCell>
        <mxCell id="vHHzUcV1OGdBYVu1SESo-2" value="- name:String" style="text;strokeColor=none;fillColor=none;align=left;verticalAlign=top;spacingLeft=4;spacingRight=4;overflow=hidden;rotatable=0;points=[[0,0.5],[1,0.5]];portConstraint=eastwest;" vertex="1" parent="vHHzUcV1OGdBYVu1SESo-1">
          <mxGeometry y="26" width="290" height="26" as="geometry" />
        </mxCell>
        <mxCell id="vHHzUcV1OGdBYVu1SESo-9" value="- salary:double" style="text;strokeColor=none;fillColor=none;align=left;verticalAlign=top;spacingLeft=4;spacingRight=4;overflow=hidden;rotatable=0;points=[[0,0.5],[1,0.5]];portConstraint=eastwest;" vertex="1" parent="vHHzUcV1OGdBYVu1SESo-1">
          <mxGeometry y="52" width="290" height="26" as="geometry" />
        </mxCell>
        <mxCell id="vHHzUcV1OGdBYVu1SESo-10" value="- hireDay:LocalDate" style="text;strokeColor=none;fillColor=none;align=left;verticalAlign=top;spacingLeft=4;spacingRight=4;overflow=hidden;rotatable=0;points=[[0,0.5],[1,0.5]];portConstraint=eastwest;" vertex="1" parent="vHHzUcV1OGdBYVu1SESo-1">
          <mxGeometry y="78" width="290" height="26" as="geometry" />
        </mxCell>
        <mxCell id="vHHzUcV1OGdBYVu1SESo-3" value="" style="line;strokeWidth=1;fillColor=none;align=left;verticalAlign=middle;spacingTop=-1;spacingLeft=3;spacingRight=3;rotatable=0;labelPosition=right;points=[];portConstraint=eastwest;" vertex="1" parent="vHHzUcV1OGdBYVu1SESo-1">
          <mxGeometry y="104" width="290" height="8" as="geometry" />
        </mxCell>
        <mxCell id="vHHzUcV1OGdBYVu1SESo-4" value="+ Employee(name:String,year:int, month:int, day:int)" style="text;strokeColor=none;fillColor=none;align=left;verticalAlign=top;spacingLeft=4;spacingRight=4;overflow=hidden;rotatable=0;points=[[0,0.5],[1,0.5]];portConstraint=eastwest;" vertex="1" parent="vHHzUcV1OGdBYVu1SESo-1">
          <mxGeometry y="112" width="290" height="28" as="geometry" />
        </mxCell>
        <mxCell id="vHHzUcV1OGdBYVu1SESo-11" value="+ getName():String" style="text;strokeColor=none;fillColor=none;align=left;verticalAlign=top;spacingLeft=4;spacingRight=4;overflow=hidden;rotatable=0;points=[[0,0.5],[1,0.5]];portConstraint=eastwest;" vertex="1" parent="vHHzUcV1OGdBYVu1SESo-1">
          <mxGeometry y="140" width="290" height="26" as="geometry" />
        </mxCell>
        <mxCell id="vHHzUcV1OGdBYVu1SESo-12" value="+ getSalary():double" style="text;strokeColor=none;fillColor=none;align=left;verticalAlign=top;spacingLeft=4;spacingRight=4;overflow=hidden;rotatable=0;points=[[0,0.5],[1,0.5]];portConstraint=eastwest;" vertex="1" parent="vHHzUcV1OGdBYVu1SESo-1">
          <mxGeometry y="166" width="290" height="26" as="geometry" />
        </mxCell>
        <mxCell id="vHHzUcV1OGdBYVu1SESo-13" value="+ getHireDay():LocalDate" style="text;strokeColor=none;fillColor=none;align=left;verticalAlign=top;spacingLeft=4;spacingRight=4;overflow=hidden;rotatable=0;points=[[0,0.5],[1,0.5]];portConstraint=eastwest;" vertex="1" parent="vHHzUcV1OGdBYVu1SESo-1">
          <mxGeometry y="192" width="290" height="26" as="geometry" />
        </mxCell>
        <mxCell id="vHHzUcV1OGdBYVu1SESo-14" value="+ raiseSalary(bypercent:double):void" style="text;strokeColor=none;fillColor=none;align=left;verticalAlign=top;spacingLeft=4;spacingRight=4;overflow=hidden;rotatable=0;points=[[0,0.5],[1,0.5]];portConstraint=eastwest;" vertex="1" parent="vHHzUcV1OGdBYVu1SESo-1">
          <mxGeometry y="218" width="290" height="26" as="geometry" />
        </mxCell>
        <mxCell id="vHHzUcV1OGdBYVu1SESo-15" value="LocalDate" style="swimlane;fontStyle=1;align=center;verticalAlign=top;childLayout=stackLayout;horizontal=1;startSize=26;horizontalStack=0;resizeParent=1;resizeParentMax=0;resizeLast=0;collapsible=1;marginBottom=0;" vertex="1" parent="1">
          <mxGeometry x="600" y="160" width="160" height="86" as="geometry" />
        </mxCell>
        <mxCell id="vHHzUcV1OGdBYVu1SESo-16" value="+ field: type" style="text;strokeColor=none;fillColor=none;align=left;verticalAlign=top;spacingLeft=4;spacingRight=4;overflow=hidden;rotatable=0;points=[[0,0.5],[1,0.5]];portConstraint=eastwest;" vertex="1" parent="vHHzUcV1OGdBYVu1SESo-15">
          <mxGeometry y="26" width="160" height="26" as="geometry" />
        </mxCell>
        <mxCell id="vHHzUcV1OGdBYVu1SESo-17" value="" style="line;strokeWidth=1;fillColor=none;align=left;verticalAlign=middle;spacingTop=-1;spacingLeft=3;spacingRight=3;rotatable=0;labelPosition=right;points=[];portConstraint=eastwest;" vertex="1" parent="vHHzUcV1OGdBYVu1SESo-15">
          <mxGeometry y="52" width="160" height="8" as="geometry" />
        </mxCell>
        <mxCell id="vHHzUcV1OGdBYVu1SESo-18" value="+ method(type): type" style="text;strokeColor=none;fillColor=none;align=left;verticalAlign=top;spacingLeft=4;spacingRight=4;overflow=hidden;rotatable=0;points=[[0,0.5],[1,0.5]];portConstraint=eastwest;" vertex="1" parent="vHHzUcV1OGdBYVu1SESo-15">
          <mxGeometry y="60" width="160" height="26" as="geometry" />
        </mxCell>
        <mxCell id="vHHzUcV1OGdBYVu1SESo-22" value="Use" style="endArrow=open;endSize=12;dashed=1;html=1;edgeStyle=orthogonalEdgeStyle;entryX=-0.025;entryY=0.14;entryDx=0;entryDy=0;entryPerimeter=0;rounded=0;" edge="1" parent="1" source="vHHzUcV1OGdBYVu1SESo-10" target="vHHzUcV1OGdBYVu1SESo-15">
          <mxGeometry width="160" relative="1" as="geometry">
            <mxPoint x="540" y="300" as="sourcePoint" />
            <mxPoint x="700" y="300" as="targetPoint" />
          </mxGeometry>
        </mxCell>
      </root>
    </mxGraphModel>
  </diagram>
</mxfile>
